<?xml version="1.0" encoding="UTF-8"?>
<svg id="Layer_1" xmlns="http://www.w3.org/2000/svg" version="1.1" fill="currentColor" viewBox="0 0 595.28 841.89">
  <!-- Generator: Adobe Illustrator 29.5.1, SVG Export Plug-In . SVG Version: 2.1.0 Build 141)  -->
  <defs>
    <style>
      .st0 {
        fill: none;
        stroke: oklch(0.5166 0.0412 182.83);
        stroke-linecap: round;
        stroke-linejoin: round;
        stroke-width: 13px;
      }
    </style>
  </defs>
  <path class="st0" d="M289.87,436.7c17.09-58.47-5.47-114.55-60.33-119.88-24.8-2.41-48.96,10.13-59.63,32.64-9.13,19.25-6.45,40.4,3.48,61.86,9.07,19.6,23.2,36.44,40.58,49.25,41.58,30.64,73.08,59.54,88.05,89.52,19.82-29.49,35.41-48.05,62.26-70.18,4.38-3.61,16.89-11.47,21.36-14.97,42.21-33.14,61.9-67.39,51.22-103.14-4.14-13.85-12.45-26.18-24.06-34.79-31.79-23.58-69.04-6.92-92.02,23.57"/>
  <path class="st0" d="M453.01,591.7c-36.6,31.24-84.31,37.98-158.68-14.12-115.51-72.81-180.16-78.89-211.8-26.72-14.93,24.62-9.16,57.02,6.78,81,41.52,62.43,128.58,10.13,212.71-45.81,106.4-71.5,165.37-88.21,206-45.45,39.32,41.39,11.12,111.07-44.35,124.57-10.15,2.47-21.09,4.15-32.61,5.61-16.26,2.07-32.78,1.57-48.82-1.82-44.65-9.44-87.26-29.06-128-58.06-36.66-22.29-72.61-30.53-106.73-2.82"/>
  <path class="st0" d="M362.89,231.52c0,17.53-9.17,33.14-23.47,43.27-12.99,9.2-24.45,20.42-33.07,33.79-1.94,3.01-3.82,6.11-5.65,9.27-3.39-6.21-7.16-12.11-11.3-17.69-7.23-9.73-16.33-17.84-26.36-24.64-14.91-10.1-24.53-26.05-24.53-44,0-30.54,27.84-55.29,62.19-55.29s62.19,24.75,62.19,55.29Z"/>
</svg>